# Blender 4.0.1
# www.blender.org
o Glow_Plate_0
v 7.061148 -3.583296 0.119139
v 6.717755 -3.722231 0.119139
v -6.717590 -3.722231 0.119138
v -7.060985 -3.583296 0.119138
v 7.203385 -3.247877 0.119139
v -7.203219 -3.247877 0.119138
v 7.203385 3.247876 0.119139
v -7.203219 3.247876 0.119138
v 7.061148 3.583299 0.119139
v -7.060985 3.583299 0.119138
v 6.717755 3.722231 0.119139
v -6.717590 3.722231 0.119138
v 7.203216 -3.247877 -0.119150
v 7.203385 -3.247877 0.119139
v 7.203385 3.247876 0.119139
v 7.203216 3.247876 -0.119150
v 6.717585 3.722231 -0.119150
v 6.717755 3.722231 0.119139
v -6.717590 3.722231 0.119138
v -6.717759 3.722231 -0.119151
v -7.203219 -3.247877 0.119138
v -7.203386 -3.247877 -0.119151
v -7.203386 3.247876 -0.119151
v -7.203219 3.247876 0.119138
v -7.061154 -3.583296 -0.119151
v -6.717759 -3.722231 -0.119151
v 6.717585 -3.722231 -0.119150
v 7.060979 -3.583296 -0.119150
v -7.203386 -3.247877 -0.119151
v 7.203216 -3.247877 -0.119150
v -7.203386 3.247876 -0.119151
v 7.203216 3.247876 -0.119150
v -7.061154 3.583299 -0.119151
v 7.060979 3.583299 -0.119150
v -6.717759 3.722231 -0.119151
v 6.717585 3.722231 -0.119150
v -6.717759 -3.722231 -0.119151
v -7.061154 -3.583296 -0.119151
v -7.060985 -3.583296 0.119138
v -6.717590 -3.722231 0.119138
v -7.061154 -3.583296 -0.119151
v -7.203386 -3.247877 -0.119151
v -7.203219 -3.247877 0.119138
v -7.060985 -3.583296 0.119138
v -6.717590 3.722231 0.119138
v -7.060985 3.583299 0.119138
v -7.061154 3.583299 -0.119151
v -6.717759 3.722231 -0.119151
v -7.060985 3.583299 0.119138
v -7.203219 3.247876 0.119138
v -7.203386 3.247876 -0.119151
v -7.061154 3.583299 -0.119151
v 6.717755 -3.722231 0.119139
v 7.061148 -3.583296 0.119139
v 7.060979 -3.583296 -0.119150
v 6.717585 -3.722231 -0.119150
v 7.061148 -3.583296 0.119139
v 7.203385 -3.247877 0.119139
v 7.203216 -3.247877 -0.119150
v 7.060979 -3.583296 -0.119150
v 6.717585 3.722231 -0.119150
v 7.060979 3.583299 -0.119150
v 7.061148 3.583299 0.119139
v 6.717755 3.722231 0.119139
v 7.060979 3.583299 -0.119150
v 7.203216 3.247876 -0.119150
v 7.203385 3.247876 0.119139
v 7.061148 3.583299 0.119139
v -6.717759 -3.722231 -0.119151
v -6.717590 -3.722231 0.119138
v 6.717755 -3.722231 0.119139
v 6.717585 -3.722231 -0.119150
vn -0.0000 -0.0000 1.0000
vn 0.9800 0.1992 -0.0006
vn 0.9800 -0.1992 -0.0007
vn 0.9800 0.1992 -0.0007
vn -0.1910 0.9816 0.0001
vn 0.1911 0.9816 -0.0001
vn 0.1910 0.9816 -0.0001
vn -0.1911 0.9816 0.0001
vn -0.9800 0.1992 0.0006
vn -0.9800 -0.1992 0.0007
vn -0.9800 0.1992 0.0007
vn -0.0000 -0.0000 -1.0000
vn -0.7011 -0.7130 0.0005
vn -0.7013 -0.7129 0.0004
vn -0.1911 -0.9816 0.0001
vn -0.1910 -0.9816 0.0001
vn -0.9800 -0.1991 0.0006
vn -0.7013 -0.7129 0.0005
vn -0.7011 -0.7130 0.0006
vn -0.7013 0.7129 0.0005
vn -0.7011 0.7130 0.0004
vn -0.1909 0.9816 0.0001
vn -0.9800 0.1991 0.0007
vn -0.7011 0.7130 0.0005
vn -0.7013 0.7129 0.0006
vn 0.7011 -0.7130 -0.0005
vn 0.7013 -0.7129 -0.0004
vn 0.1911 -0.9816 -0.0001
vn 0.1910 -0.9816 -0.0001
vn 0.9800 -0.1992 -0.0006
vn 0.7013 -0.7129 -0.0005
vn 0.7011 -0.7130 -0.0006
vn 0.7013 0.7129 -0.0005
vn 0.7011 0.7130 -0.0004
vn 0.1909 0.9816 -0.0001
vn 0.7011 0.7130 -0.0005
vn 0.7013 0.7129 -0.0006
vt 0.020542 0.670672
vt 0.308625 0.670672
vt 0.315988 0.673651
vt 0.013179 0.673651
vt 0.319038 0.680843
vt 0.010129 0.680843
vt 0.319038 0.815051
vt 0.010129 0.815051
vt 0.315988 0.822244
vt 0.013179 0.822244
vt 0.308625 0.825223
vt 0.020542 0.825223
vt 0.153078 0.749431
vt 0.150205 0.749431
vt 0.150205 0.746558
vt 0.153078 0.746558
vt 0.159695 0.747043
vt 0.154378 0.747043
vt 0.154242 0.747100
vt 0.159831 0.747100
vt 0.154186 0.747238
vt 0.159888 0.747238
vt 0.154186 0.749905
vt 0.159888 0.749905
vt 0.154242 0.750043
vt 0.159831 0.750043
vt 0.154378 0.750100
vt 0.159695 0.750100
s 0
f 3/1/1 2/2/1 1/3/1
f 1/3/1 4/4/1 3/1/1
f 1/3/1 5/5/1 4/4/1
f 5/5/1 6/6/1 4/4/1
f 5/5/1 7/7/1 6/6/1
f 7/7/1 8/8/1 6/6/1
f 7/7/1 9/9/1 8/8/1
f 9/9/1 10/10/1 8/8/1
f 9/9/1 11/11/1 10/10/1
f 11/11/1 12/12/1 10/10/1
f 15/13/2 14/14/3 13/15/3
f 16/16/4 15/13/4 13/15/3
f 19/13/5 18/14/6 17/15/7
f 20/16/8 19/13/5 17/15/7
f 23/13/9 22/14/10 21/15/10
f 24/16/11 23/13/11 21/15/10
f 27/17/12 26/18/12 25/19/12
f 25/19/12 28/20/12 27/17/12
f 25/19/12 29/21/12 28/20/12
f 29/21/12 30/22/12 28/20/12
f 29/21/12 31/23/12 30/22/12
f 31/23/12 32/24/12 30/22/12
f 31/23/12 33/25/12 32/24/12
f 33/25/12 34/26/12 32/24/12
f 33/25/12 35/27/12 34/26/12
f 35/27/12 36/28/12 34/26/12
f 39/13/13 38/14/14 37/15/15
f 40/16/16 39/13/13 37/15/15
f 43/13/10 42/14/17 41/15/18
f 44/16/19 43/13/10 41/15/18
f 47/13/20 46/14/21 45/15/22
f 48/16/8 47/13/20 45/15/22
f 51/13/23 50/14/9 49/15/24
f 52/16/25 51/13/11 49/15/24
f 55/13/26 54/14/27 53/15/28
f 56/16/29 55/13/26 53/15/28
f 59/13/3 58/14/30 57/15/31
f 60/16/32 59/13/3 57/15/31
f 63/13/33 62/14/34 61/15/35
f 64/16/6 63/13/33 61/15/35
f 67/13/4 66/14/2 65/15/36
f 68/16/37 67/13/4 65/15/36
f 71/13/28 70/14/16 69/15/15
f 72/16/29 71/13/28 69/15/15
o numberPlate_backing_0
v 7.895408 -4.158810 0.061060
v -7.895408 -4.158810 0.061063
v -7.893225 -3.646791 0.061063
v 7.893225 -3.646501 0.061060
v -8.249315 -4.009428 0.061063
v -8.395908 -3.648784 0.061063
v 7.893225 3.741609 0.061060
v 8.395908 3.743528 0.061060
v 8.249316 4.104170 0.061060
v 7.895408 4.253554 0.061060
v -7.893225 3.741301 0.061063
v -7.895408 4.253554 0.061063
v -8.249315 4.104170 0.061063
v -8.395908 3.743528 0.061063
v 8.395908 -3.648784 0.061060
v 8.249316 -4.009428 0.061060
v -7.895408 -4.158810 -0.132162
v -7.893225 -3.646791 -0.132162
v -8.249315 -4.009428 -0.132162
v -8.395908 -3.648784 -0.132162
v -7.893225 3.741301 -0.132162
v -8.395908 3.743528 -0.132162
v 7.893225 3.741609 -0.132165
v 7.895408 4.253554 -0.132165
v -7.895408 4.253554 -0.132162
v 7.893225 -3.646501 -0.132165
v 8.395908 3.743528 -0.132165
v 8.395908 -3.648784 -0.132165
v -8.249315 4.104170 -0.132162
v 8.249316 4.104170 -0.132165
v 7.895408 -4.158810 -0.132165
v 8.249316 -4.009428 -0.132165
v 8.395908 -3.648784 0.061060
v 8.395908 3.743528 0.061060
v 8.395908 3.743528 -0.132165
v 8.395908 -3.648784 -0.132165
v 8.249316 -4.009428 0.061060
v 8.249316 -4.009428 -0.132165
v 7.895408 -4.158810 0.061060
v 7.895408 -4.158810 -0.132165
v 8.249316 4.104170 -0.132165
v 8.249316 4.104170 0.061060
v 7.895408 4.253554 -0.132165
v 7.895408 4.253554 0.061060
v -7.895408 4.253554 -0.132162
v -7.895408 4.253554 0.061063
v -8.249315 4.104170 -0.132162
v -8.249315 4.104170 0.061063
v -8.395908 3.743528 -0.132162
v -8.395908 3.743528 0.061063
v -8.395908 -3.648784 -0.132162
v -8.395908 -3.648784 0.061063
v -7.895408 -4.158810 0.061063
v -7.895408 -4.158810 -0.132162
v -8.249315 -4.009428 0.061063
v -8.249315 -4.009428 -0.132162
v 4.561865 -4.119496 -0.119791
v 4.561865 -4.327660 -0.371199
v 4.561866 4.343743 -0.371195
v 4.561866 4.237072 -0.119786
v 6.082095 -4.327303 -0.371195
v 6.082095 -4.327303 0.134469
v 6.082095 -4.119140 0.134469
v 6.082095 -4.119140 -0.119787
v 4.561865 -4.119496 -0.119791
v 4.561865 -4.119496 0.134465
v 4.561865 -4.327660 0.134465
v 4.561865 -4.327660 -0.371199
v 4.561865 -4.327660 -0.371199
v 6.082095 -4.327303 -0.371195
v 6.082097 4.344099 -0.371198
v 4.561866 4.343743 -0.371195
v 4.561866 4.343743 -0.371195
v 4.561866 4.343743 -0.049652
v 4.561866 4.237072 -0.049652
v 4.561866 4.237072 -0.119786
v 6.082097 4.237428 -0.119790
v 6.082097 4.237428 -0.049655
v 6.082097 4.344099 -0.049655
v 6.082097 4.344099 -0.371198
v 6.082097 4.344099 -0.371198
v 6.082097 4.344099 -0.049655
v 4.561866 4.343743 -0.049652
v 4.561866 4.343743 -0.371195
v 4.561866 4.343743 -0.049652
v 6.082097 4.344099 -0.049655
v 6.082097 4.237428 -0.049655
v 4.561866 4.237072 -0.049652
v 6.082097 4.237428 -0.119790
v 6.082097 4.344099 -0.371198
v 6.082095 -4.327303 -0.371195
v 6.082095 -4.119140 -0.119787
v 4.561865 -4.327660 -0.371199
v 4.561865 -4.327660 0.134465
v 6.082095 -4.327303 0.134469
v 6.082095 -4.327303 -0.371195
v 6.082095 -4.327303 0.134469
v 4.561865 -4.327660 0.134465
v 4.561865 -4.119496 0.134465
v 6.082095 -4.119140 0.134469
v -4.561865 -4.119496 -0.119791
v -4.561866 4.237072 -0.119787
v -4.561866 4.343743 -0.371195
v -4.561865 -4.327660 -0.371200
v -6.082095 -4.327303 -0.371196
v -6.082095 -4.119140 -0.119788
v -6.082095 -4.119140 0.134468
v -6.082095 -4.327303 0.134468
v -4.561865 -4.119496 -0.119791
v -4.561865 -4.327660 -0.371200
v -4.561865 -4.327660 0.134464
v -4.561865 -4.119496 0.134464
v -4.561865 -4.327660 -0.371200
v -4.561866 4.343743 -0.371195
v -6.082097 4.344099 -0.371199
v -6.082095 -4.327303 -0.371196
v -4.561866 4.343743 -0.371195
v -4.561866 4.237072 -0.119787
v -4.561866 4.237072 -0.049652
v -4.561866 4.343743 -0.049652
v -6.082097 4.237428 -0.119791
v -6.082097 4.344099 -0.371199
v -6.082097 4.344099 -0.049656
v -6.082097 4.237428 -0.049656
v -6.082097 4.344099 -0.371199
v -4.561866 4.343743 -0.371195
v -4.561866 4.343743 -0.049652
v -6.082097 4.344099 -0.049656
v -4.561866 4.343743 -0.049652
v -4.561866 4.237072 -0.049652
v -6.082097 4.237428 -0.049656
v -6.082097 4.344099 -0.049656
v -6.082097 4.237428 -0.119791
v -6.082095 -4.119140 -0.119788
v -6.082095 -4.327303 -0.371196
v -6.082097 4.344099 -0.371199
v -4.561865 -4.327660 -0.371200
v -6.082095 -4.327303 -0.371196
v -6.082095 -4.327303 0.134468
v -4.561865 -4.327660 0.134464
v -6.082095 -4.327303 0.134468
v -6.082095 -4.119140 0.134468
v -4.561865 -4.119496 0.134464
v -4.561865 -4.327660 0.134464
v 5.933541 -0.760116 -0.483861
v 5.933059 0.760115 -0.483857
v -5.933541 0.760116 -0.483862
v -5.933062 -0.760115 -0.483859
v -5.933062 -0.760115 -0.483859
v -5.933541 0.760116 -0.483862
v -5.933541 0.760116 -0.180146
v -5.933062 -0.760115 -0.180143
v 5.933059 0.760115 -0.180141
v 5.933059 0.760115 -0.483857
v 5.933541 -0.760116 -0.483861
v 5.933541 -0.760116 -0.180145
v 4.561865 -4.119496 0.134465
v 4.561865 -4.119496 -0.119791
v 6.082095 -4.119140 -0.119787
v 6.082095 -4.119140 0.134469
v -4.561865 -4.119496 0.134464
v -6.082095 -4.119140 0.134468
v -6.082095 -4.119140 -0.119788
v -4.561865 -4.119496 -0.119791
vn -0.0000 -0.0000 1.0000
vn -0.0000 -0.0000 -1.0000
vn 0.9814 0.1919 -0.0000
vn 0.9814 0.1919 -0.0001
vn 0.9814 -0.1919 -0.0000
vn 0.9814 -0.1919 0.0001
vn 0.9814 -0.1918 -0.0000
vn 0.7118 -0.7024 -0.0000
vn 0.1984 -0.9801 -0.0000
vn 0.9814 0.1918 -0.0000
vn 0.7118 0.7024 -0.0000
vn 0.1984 0.9801 -0.0000
vn 0.1984 0.9801 0.0001
vn -0.1984 0.9801 -0.0000
vn -0.7118 0.7024 -0.0000
vn -0.9814 0.1918 -0.0000
vn -0.9814 0.1919 -0.0000
vn -0.9814 -0.1919 -0.0000
vn -0.1984 -0.9801 -0.0000
vn -0.7118 -0.7024 -0.0000
vn -0.9814 -0.1918 -0.0000
vn -1.0000 -0.0000 -0.0000
vn -0.9487 0.3162 -0.0000
vn 0.5773 0.5774 0.5774
vn 0.7071 -0.0003 0.7072
vn 1.0000 -0.0000 -0.0000
vn 0.9487 0.3162 -0.0000
vn -0.7072 -0.0000 0.7071
vn -0.5774 0.5773 0.5774
vn -0.7071 -0.0002 0.7072
vn -0.7072 0.0001 0.7071
vn 0.7072 -0.0000 0.7071
vn 0.7071 0.0002 0.7072
vn -0.0002 1.0000 -0.0000
vn 0.7071 -0.0000 0.7072
vn 0.7072 -0.0001 0.7071
vn -0.7071 -0.0000 0.7072
vn 0.0002 -1.0000 -0.0000
vn -0.5774 0.5773 0.5773
vn -0.5773 0.5774 0.5774
vn 0.7072 -0.0002 0.7071
vn 0.5774 0.5773 0.5774
vn 0.7072 0.0003 0.7071
vn -0.7072 -0.0003 0.7071
vn 0.0002 1.0000 -0.0000
vn -0.7071 -0.0001 0.7072
vn 0.7071 0.0001 0.7072
vn -0.0002 -1.0000 -0.0000
vn 0.5774 0.5773 0.5773
vn -0.7072 0.7070 -0.0000
vn -0.7070 -0.7072 -0.0000
vn 0.7070 0.7072 0.0001
vn 0.7070 0.7072 -0.0000
vn -0.7072 0.7070 -0.0001
vn 0.7072 -0.7070 -0.0001
vn 0.7072 -0.7070 -0.0000
vn -0.7070 -0.7072 0.0001
vn 0.9487 0.3162 -0.0001
vn 0.5773 0.5774 0.5773
vn -0.5773 0.5774 0.5773
vn -0.9487 0.3162 -0.0001
vt 0.025218 0.020171
vt 0.025170 0.008996
vt 0.373108 0.008996
vt 0.373061 0.020178
vt 0.017446 0.012257
vt 0.014246 0.020128
vt 0.373061 0.181428
vt 0.384032 0.181469
vt 0.380833 0.189341
vt 0.373108 0.192601
vt 0.025218 0.181421
vt 0.025170 0.192601
vt 0.017446 0.189341
vt 0.014246 0.181469
vt 0.384032 0.020128
vt 0.380833 0.012257
vt 0.393005 0.144699
vt 0.394842 0.146570
vt 0.394831 0.143928
vt 0.392249 0.146559
vt 0.394842 0.184682
vt 0.392249 0.184693
vt 0.477056 0.184683
vt 0.477067 0.187324
vt 0.394831 0.187324
vt 0.477056 0.146571
vt 0.479649 0.184693
vt 0.479649 0.146559
vt 0.393005 0.186553
vt 0.478893 0.186553
vt 0.477067 0.143928
vt 0.478893 0.144699
vt 0.396777 0.128206
vt 0.400729 0.128206
vt 0.400729 0.132157
vt 0.396777 0.132157
s 0
f 75/29/38 74/30/38 73/31/38
f 76/32/38 75/29/38 73/31/38
f 75/29/38 77/33/38 74/30/38
f 75/29/38 78/34/38 77/33/38
f 76/32/38 79/35/38 75/29/38
f 79/35/38 76/32/38 80/36/38
f 79/35/38 80/36/38 81/37/38
f 79/35/38 81/37/38 82/38/38
f 79/35/38 82/38/38 83/39/38
f 79/35/38 83/39/38 75/29/38
f 75/29/38 83/39/38 78/34/38
f 82/38/38 84/40/38 83/39/38
f 83/39/38 84/40/38 85/41/38
f 83/39/38 85/41/38 86/42/38
f 83/39/38 86/42/38 78/34/38
f 76/32/38 87/43/38 80/36/38
f 76/32/38 88/44/38 87/43/38
f 76/32/38 73/31/38 88/44/38
f 91/45/39 90/46/39 89/47/39
f 92/48/39 90/46/39 91/45/39
f 93/49/39 90/46/39 92/48/39
f 94/50/39 93/49/39 92/48/39
f 93/49/39 95/51/39 90/46/39
f 96/52/39 95/51/39 93/49/39
f 97/53/39 96/52/39 93/49/39
f 95/51/39 98/54/39 90/46/39
f 98/54/39 95/51/39 99/55/39
f 100/56/39 98/54/39 99/55/39
f 97/53/39 93/49/39 101/57/39
f 101/57/39 93/49/39 94/50/39
f 102/58/39 95/51/39 96/52/39
f 99/55/39 95/51/39 102/58/39
f 90/46/39 98/54/39 103/59/39
f 89/47/39 90/46/39 103/59/39
f 103/59/39 98/54/39 104/60/39
f 104/60/39 98/54/39 100/56/39
f 107/36/40 106/36/41 105/43/42
f 108/43/43 107/36/40 105/43/42
f 108/43/44 105/43/44 109/44/45
f 110/44/45 108/43/44 109/44/45
f 110/44/45 109/44/45 111/31/46
f 112/31/46 110/44/45 111/31/46
f 107/36/47 113/37/48 106/36/47
f 113/37/48 114/37/48 106/36/47
f 113/37/48 115/38/49 114/37/48
f 115/38/49 116/38/49 114/37/48
f 115/38/50 117/40/51 116/38/49
f 117/40/51 118/40/51 116/38/49
f 117/40/51 119/41/52 118/40/51
f 119/41/52 120/41/52 118/40/51
f 119/41/52 121/42/53 120/41/52
f 121/42/53 122/42/53 120/41/52
f 121/42/54 123/34/55 122/42/54
f 123/34/55 124/34/55 122/42/54
f 112/31/46 111/31/46 125/30/56
f 126/30/56 112/31/46 125/30/56
f 126/30/56 125/30/56 127/33/57
f 128/33/57 126/30/56 127/33/57
f 128/33/57 127/33/57 124/34/58
f 123/34/58 128/33/57 124/34/58
f 131/61/59 130/62/59 129/63/60
f 132/64/59 131/61/59 129/63/60
f 135/61/61 134/62/62 133/63/63
f 136/64/64 135/61/61 133/63/63
f 139/61/65 138/62/66 137/63/60
f 140/64/59 139/61/65 137/63/60
f 143/61/39 142/62/39 141/63/39
f 144/64/39 143/61/39 141/63/39
f 147/61/65 146/62/67 145/63/59
f 148/64/59 147/61/68 145/63/59
f 151/61/69 150/62/70 149/63/63
f 152/64/63 151/61/69 149/63/63
f 155/61/71 154/62/71 153/63/71
f 156/64/71 155/61/71 153/63/71
f 159/61/72 158/62/73 157/63/74
f 160/64/68 159/61/72 157/63/74
f 163/61/63 162/62/63 161/63/63
f 164/64/64 163/61/63 161/63/63
f 167/61/75 166/62/75 165/63/75
f 168/64/75 167/61/75 165/63/75
f 171/61/76 170/62/68 169/63/72
f 172/64/61 171/61/76 169/63/72
f 175/61/63 174/64/63 173/63/64
f 176/62/63 175/61/63 173/63/64
f 179/61/77 178/64/60 177/63/59
f 180/62/74 179/61/77 177/63/59
f 183/61/78 182/64/63 181/63/64
f 184/62/79 183/61/69 181/63/64
f 187/61/39 186/64/39 185/63/39
f 188/62/39 187/61/39 185/63/39
f 191/61/80 190/64/63 189/63/63
f 192/62/72 191/61/69 189/63/63
f 195/61/81 194/64/59 193/63/59
f 196/62/74 195/61/65 193/63/59
f 199/61/82 198/64/82 197/63/82
f 200/62/82 199/61/82 197/63/82
f 203/61/83 202/64/69 201/63/72
f 204/62/65 203/61/74 201/63/84
f 207/61/59 206/64/60 205/63/59
f 208/62/59 207/61/59 205/63/59
f 211/61/85 210/64/85 209/63/85
f 212/62/85 211/61/85 209/63/85
f 215/61/86 214/64/77 213/63/74
f 216/62/69 215/61/86 213/63/83
f 219/61/39 218/62/39 217/63/39
f 220/64/39 219/61/39 217/63/39
f 223/61/87 222/61/87 221/64/88
f 224/64/88 223/61/87 221/64/88
f 223/61/87 225/62/89 222/61/87
f 225/62/90 226/62/90 222/61/91
f 224/64/88 221/64/88 227/63/92
f 228/63/93 224/64/94 227/63/93
f 228/63/93 227/63/93 226/62/90
f 225/62/90 228/63/93 226/62/90
f 231/64/95 230/63/60 229/62/76
f 232/61/96 231/64/64 229/62/66
f 235/64/60 234/61/97 233/62/79
f 236/63/64 235/64/98 233/62/86
