g numberPlate_backing
v 0.006316326 -4.884767E-05 -0.003327048
v -0.006316326 -4.885071E-05 -0.003327048
v -0.00631458 -4.885071E-05 -0.002917433
v 0.00631458 -4.884767E-05 -0.002917201
v -0.006599452 -4.885077E-05 -0.003207542
v -0.006716727 -4.88508E-05 -0.002919027
v 0.00631458 -4.884767E-05 0.002993287
v 0.006716727 -4.884759E-05 0.002994822
v 0.006599453 -4.884761E-05 0.003283336
v 0.006316326 -4.884767E-05 0.003402843
v -0.00631458 -4.885071E-05 0.002993041
v -0.006316326 -4.885071E-05 0.003402843
v -0.006599452 -4.885077E-05 0.003283336
v -0.006716727 -4.88508E-05 0.002994822
v 0.006716727 -4.884759E-05 -0.002919027
v 0.006599453 -4.884761E-05 -0.003207542
v -0.006316326 0.0001057294 -0.003327048
v -0.00631458 0.0001057294 -0.002917433
v -0.006599452 0.0001057293 -0.003207542
v -0.006716727 0.0001057293 -0.002919027
v -0.00631458 0.0001057294 0.002993041
v -0.006716727 0.0001057293 0.002994822
v 0.00631458 0.0001057324 0.002993287
v 0.006316326 0.0001057324 0.003402843
v -0.006316326 0.0001057294 0.003402843
v 0.00631458 0.0001057324 -0.002917201
v 0.006716727 0.0001057325 0.002994822
v 0.006716727 0.0001057325 -0.002919027
v -0.006599452 0.0001057293 0.003283336
v 0.006599453 0.0001057325 0.003283336
v 0.006316326 0.0001057324 -0.003327048
v 0.006599453 0.0001057325 -0.003207542
v 0.006716727 -4.884759E-05 -0.002919027
v 0.006716727 -4.884759E-05 0.002994822
v 0.006716727 0.0001057325 0.002994822
v 0.006716727 0.0001057325 -0.002919027
v 0.006599453 -4.884761E-05 -0.003207542
v 0.006599453 0.0001057325 -0.003207542
v 0.006316326 -4.884767E-05 -0.003327048
v 0.006316326 0.0001057324 -0.003327048
v 0.006599453 0.0001057325 0.003283336
v 0.006599453 -4.884761E-05 0.003283336
v 0.006316326 0.0001057324 0.003402843
v 0.006316326 -4.884767E-05 0.003402843
v -0.006316326 0.0001057294 0.003402843
v -0.006316326 -4.885071E-05 0.003402843
v -0.006599452 0.0001057293 0.003283336
v -0.006599452 -4.885077E-05 0.003283336
v -0.006716727 0.0001057293 0.002994822
v -0.006716727 -4.88508E-05 0.002994822
v -0.006716727 0.0001057293 -0.002919027
v -0.006716727 -4.88508E-05 -0.002919027
v -0.006316326 -4.885071E-05 -0.003327048
v -0.006316326 0.0001057294 -0.003327048
v -0.006599452 -4.885077E-05 -0.003207542
v -0.006599452 0.0001057293 -0.003207542
v 0.003649492 9.583271E-05 -0.003295597
v 0.003649492 0.0002969594 -0.003462128
v 0.003649493 0.0002969561 0.003474994
v 0.003649493 9.582946E-05 0.003389658
v 0.004865676 0.0002969564 -0.003461843
v 0.004865676 -0.0001075748 -0.003461843
v 0.004865676 -0.0001075748 -0.003295312
v 0.004865676 9.58297E-05 -0.003295312
v 0.003649492 9.583271E-05 -0.003295597
v 0.003649492 -0.0001075718 -0.003295597
v 0.003649492 -0.0001075717 -0.003462128
v 0.003649492 0.0002969594 -0.003462128
v 0.003649492 0.0002969594 -0.003462128
v 0.004865676 0.0002969564 -0.003461843
v 0.004865677 0.0002969591 0.003475279
v 0.003649493 0.0002969561 0.003474994
v 0.003649493 0.0002969561 0.003474994
v 0.003649493 3.972163E-05 0.003474994
v 0.003649493 3.972163E-05 0.003389658
v 0.003649493 9.582946E-05 0.003389658
v 0.004865677 9.583247E-05 0.003389942
v 0.004865677 3.972465E-05 0.003389942
v 0.004865677 3.972465E-05 0.003475279
v 0.004865677 0.0002969591 0.003475279
v 0.004865677 0.0002969591 0.003475279
v 0.004865677 3.972465E-05 0.003475279
v 0.003649493 3.972163E-05 0.003474994
v 0.003649493 0.0002969561 0.003474994
v 0.003649493 3.972163E-05 0.003474994
v 0.004865677 3.972465E-05 0.003475279
v 0.004865677 3.972465E-05 0.003389942
v 0.003649493 3.972163E-05 0.003389658
v 0.004865677 9.583247E-05 0.003389942
v 0.004865677 0.0002969591 0.003475279
v 0.004865676 0.0002969564 -0.003461843
v 0.004865676 9.58297E-05 -0.003295312
v 0.003649492 0.0002969594 -0.003462128
v 0.003649492 -0.0001075717 -0.003462128
v 0.004865676 -0.0001075748 -0.003461843
v 0.004865676 0.0002969564 -0.003461843
v 0.004865676 -0.0001075748 -0.003461843
v 0.003649492 -0.0001075717 -0.003462128
v 0.003649492 -0.0001075718 -0.003295597
v 0.004865676 -0.0001075748 -0.003295312
v -0.003649492 9.583271E-05 -0.003295597
v -0.003649493 9.582946E-05 0.003389658
v -0.003649493 0.0002969561 0.003474994
v -0.003649492 0.0002969594 -0.003462128
v -0.004865676 0.0002969564 -0.003461843
v -0.004865676 9.58297E-05 -0.003295312
v -0.004865676 -0.0001075748 -0.003295312
v -0.004865676 -0.0001075748 -0.003461843
v -0.003649492 9.583271E-05 -0.003295597
v -0.003649492 0.0002969594 -0.003462128
v -0.003649492 -0.0001075717 -0.003462128
v -0.003649492 -0.0001075718 -0.003295597
v -0.003649492 0.0002969594 -0.003462128
v -0.003649493 0.0002969561 0.003474994
v -0.004865677 0.0002969591 0.003475279
v -0.004865676 0.0002969564 -0.003461843
v -0.003649493 0.0002969561 0.003474994
v -0.003649493 9.582946E-05 0.003389658
v -0.003649493 3.972163E-05 0.003389658
v -0.003649493 3.972163E-05 0.003474994
v -0.004865677 9.583247E-05 0.003389942
v -0.004865677 0.0002969591 0.003475279
v -0.004865677 3.972465E-05 0.003475279
v -0.004865677 3.972465E-05 0.003389942
v -0.004865677 0.0002969591 0.003475279
v -0.003649493 0.0002969561 0.003474994
v -0.003649493 3.972163E-05 0.003474994
v -0.004865677 3.972465E-05 0.003475279
v -0.003649493 3.972163E-05 0.003474994
v -0.003649493 3.972163E-05 0.003389658
v -0.004865677 3.972465E-05 0.003389942
v -0.004865677 3.972465E-05 0.003475279
v -0.004865677 9.583247E-05 0.003389942
v -0.004865676 9.58297E-05 -0.003295312
v -0.004865676 0.0002969564 -0.003461843
v -0.004865677 0.0002969591 0.003475279
v -0.003649492 0.0002969594 -0.003462128
v -0.004865676 0.0002969564 -0.003461843
v -0.004865676 -0.0001075748 -0.003461843
v -0.003649492 -0.0001075717 -0.003462128
v -0.004865676 -0.0001075748 -0.003461843
v -0.004865676 -0.0001075748 -0.003295312
v -0.003649492 -0.0001075718 -0.003295597
v -0.003649492 -0.0001075717 -0.003462128
v 0.004746833 0.0003870889 -0.0006080925
v 0.004746447 0.0003870857 0.0006080919
v -0.004746833 0.0003870894 0.0006080925
v -0.004746449 0.0003870866 -0.0006080919
v -0.004746449 0.0003870866 -0.0006080919
v -0.004746833 0.0003870894 0.0006080925
v -0.004746833 0.0001441166 0.0006080925
v -0.004746449 0.0001441138 -0.0006080919
v 0.004746447 0.0001441129 0.0006080919
v 0.004746447 0.0003870857 0.0006080919
v 0.004746833 0.0003870889 -0.0006080925
v 0.004746833 0.0001441161 -0.0006080925
v 0.003649492 -0.0001075718 -0.003295597
v 0.003649492 9.583271E-05 -0.003295597
v 0.004865676 9.58297E-05 -0.003295312
v 0.004865676 -0.0001075748 -0.003295312
v -0.003649492 -0.0001075718 -0.003295597
v -0.004865676 -0.0001075748 -0.003295312
v -0.004865676 9.58297E-05 -0.003295312
v -0.003649492 9.583271E-05 -0.003295597
vt 0.3731084 0.008996166
vt 0.02517023 0.008996166
vt 0.02521783 0.02017128
vt 0.3730608 0.02017762
vt 0.01744599 0.01225652
vt 0.01424645 0.02012777
vt 0.3730608 0.1814276
vt 0.3840321 0.1814694
vt 0.3808327 0.1893407
vt 0.3731084 0.1926011
vt 0.02521783 0.1814209
vt 0.02517023 0.1926011
vt 0.01744599 0.1893407
vt 0.01424645 0.1814694
vt 0.3840321 0.02012777
vt 0.3808327 0.01225652
vt 0.3948306 0.1439284
vt 0.3948419 0.1465697
vt 0.393005 0.144699
vt 0.3922488 0.1465594
vt 0.3948419 0.1846816
vt 0.3922488 0.1846931
vt 0.4770558 0.1846832
vt 0.4770671 0.1873241
vt 0.3948306 0.1873241
vt 0.4770558 0.1465712
vt 0.4796489 0.1846931
vt 0.4796489 0.1465594
vt 0.393005 0.1865535
vt 0.4788928 0.1865535
vt 0.4770671 0.1439284
vt 0.4788928 0.144699
vt 0.3840321 0.02012777
vt 0.3840321 0.1814694
vt 0.3840321 0.1814694
vt 0.3840321 0.02012777
vt 0.3808327 0.01225652
vt 0.3808327 0.01225652
vt 0.3731084 0.008996166
vt 0.3731084 0.008996166
vt 0.3808327 0.1893407
vt 0.3808327 0.1893407
vt 0.3731084 0.1926011
vt 0.3731084 0.1926011
vt 0.02517023 0.1926011
vt 0.02517023 0.1926011
vt 0.01744599 0.1893407
vt 0.01744599 0.1893407
vt 0.01424645 0.1814694
vt 0.01424645 0.1814694
vt 0.01424645 0.02012777
vt 0.01424645 0.02012777
vt 0.02517023 0.008996166
vt 0.02517023 0.008996166
vt 0.01744599 0.01225652
vt 0.01744599 0.01225652
vt 0.4007286 0.1321571
vt 0.4007286 0.1282057
vt 0.3967772 0.1282057
vt 0.3967772 0.1321571
vt 0.4007286 0.1321571
vt 0.4007286 0.1282057
vt 0.3967772 0.1282057
vt 0.3967772 0.1321571
vt 0.4007286 0.1321571
vt 0.4007286 0.1282057
vt 0.3967772 0.1282057
vt 0.3967772 0.1321571
vt 0.4007286 0.1321571
vt 0.4007286 0.1282057
vt 0.3967772 0.1282057
vt 0.3967772 0.1321571
vt 0.4007286 0.1321571
vt 0.4007286 0.1282057
vt 0.3967772 0.1282057
vt 0.3967772 0.1321571
vt 0.4007286 0.1321571
vt 0.4007286 0.1282057
vt 0.3967772 0.1282057
vt 0.3967772 0.1321571
vt 0.4007286 0.1321571
vt 0.4007286 0.1282057
vt 0.3967772 0.1282057
vt 0.3967772 0.1321571
vt 0.4007286 0.1321571
vt 0.4007286 0.1282057
vt 0.3967772 0.1282057
vt 0.3967772 0.1321571
vt 0.4007286 0.1321571
vt 0.4007286 0.1282057
vt 0.3967772 0.1282057
vt 0.3967772 0.1321571
vt 0.4007286 0.1321571
vt 0.4007286 0.1282057
vt 0.3967772 0.1282057
vt 0.3967772 0.1321571
vt 0.4007286 0.1321571
vt 0.4007286 0.1282057
vt 0.3967772 0.1282057
vt 0.3967772 0.1321571
vt 0.4007286 0.1321571
vt 0.3967772 0.1321571
vt 0.3967772 0.1282057
vt 0.4007286 0.1282057
vt 0.4007286 0.1321571
vt 0.3967772 0.1321571
vt 0.3967772 0.1282057
vt 0.4007286 0.1282057
vt 0.4007286 0.1321571
vt 0.3967772 0.1321571
vt 0.3967772 0.1282057
vt 0.4007286 0.1282057
vt 0.4007286 0.1321571
vt 0.3967772 0.1321571
vt 0.3967772 0.1282057
vt 0.4007286 0.1282057
vt 0.4007286 0.1321571
vt 0.3967772 0.1321571
vt 0.3967772 0.1282057
vt 0.4007286 0.1282057
vt 0.4007286 0.1321571
vt 0.3967772 0.1321571
vt 0.3967772 0.1282057
vt 0.4007286 0.1282057
vt 0.4007286 0.1321571
vt 0.3967772 0.1321571
vt 0.3967772 0.1282057
vt 0.4007286 0.1282057
vt 0.4007286 0.1321571
vt 0.3967772 0.1321571
vt 0.3967772 0.1282057
vt 0.4007286 0.1282057
vt 0.4007286 0.1321571
vt 0.3967772 0.1321571
vt 0.3967772 0.1282057
vt 0.4007286 0.1282057
vt 0.4007286 0.1321571
vt 0.3967772 0.1321571
vt 0.3967772 0.1282057
vt 0.4007286 0.1282057
vt 0.4007286 0.1321571
vt 0.3967772 0.1321571
vt 0.3967772 0.1282057
vt 0.4007286 0.1282057
vt 0.4007286 0.1321571
vt 0.4007286 0.1282057
vt 0.3967772 0.1282057
vt 0.3967772 0.1321571
vt 0.3967772 0.1321571
vt 0.3967772 0.1282057
vt 0.3967772 0.1282057
vt 0.3967772 0.1321571
vt 0.4007286 0.1282057
vt 0.4007286 0.1282057
vt 0.4007286 0.1321571
vt 0.4007286 0.1321571
vt 0.4007286 0.1282057
vt 0.4007286 0.1321571
vt 0.3967772 0.1321571
vt 0.3967772 0.1282057
vt 0.4007286 0.1282057
vt 0.3967772 0.1282057
vt 0.3967772 0.1321571
vt 0.4007286 0.1321571
vn 2.358591E-07 -1 0
vn 2.358588E-07 -1 0
vn 2.314166E-07 -1 0
vn 2.314152E-07 -1 0
vn 2.24976E-07 -1 0
vn 2.199939E-07 -1 0
vn 2.314167E-07 -1 0
vn 2.199937E-07 -1 0
vn 2.249757E-07 -1 0
vn 2.358587E-07 -1 0
vn 2.314157E-07 -1 0
vn 2.358593E-07 -1 0
vn 2.249757E-07 -1 0
vn 2.199919E-07 -1 0
vn 2.199909E-07 -1 0
vn 2.24975E-07 -1 0
vn -2.490937E-07 1 0
vn -2.477909E-07 1 0
vn -2.587537E-07 1 0
vn -2.547353E-07 1 0
vn -2.477902E-07 1 0
vn -2.547339E-07 1 0
vn -2.477909E-07 1 0
vn -2.490937E-07 1 0
vn -2.490942E-07 1 0
vn -2.477898E-07 1 0
vn -2.547351E-07 1 0
vn -2.54733E-07 1 0
vn -2.587539E-07 1 0
vn -2.587536E-07 1 0
vn -2.490939E-07 1 0
vn -2.587531E-07 1 0
vn 0.981426 0 -0.191841
vn 0.981426 0 0.191841
vn 0.981426 0 0.191841
vn 0.981426 0 -0.191841
vn 0.7118039 0 -0.7023782
vn 0.711804 0 -0.702378
vn 0.198378 0 -0.9801256
vn 0.1983781 0 -0.9801256
vn 0.711804 0 0.702378
vn 0.7118039 0 0.7023782
vn 0.1983781 0 0.9801256
vn 0.198378 0 0.9801256
vn -0.1983796 0 0.9801252
vn -0.1983796 0 0.9801252
vn -0.7118039 0 0.7023782
vn -0.7118039 0 0.7023782
vn -0.9814256 0 0.1918427
vn -0.9814256 0 0.1918427
vn -0.9814256 0 -0.1918429
vn -0.9814256 0 -0.1918429
vn -0.1983796 0 -0.9801252
vn -0.1983796 0 -0.9801252
vn -0.7118039 0 -0.7023783
vn -0.7118038 0 -0.7023783
vn -0.9486908 0 0.3162051
vn -1 0 0
vn -1 0 0
vn -1 0 0
vn 1 0 0
vn 0.7070532 -0.7071603 -1.625899E-07
vn 0.5772882 -0.5773388 0.5774239
vn 0.9486757 0 0.3162504
vn -0.9486908 0 0.3162051
vn -0.5774124 -0.5773618 0.5772765
vn -0.7071605 -0.707053 -1.625652E-07
vn -1 0 0
vn 0 1 0
vn 0 1 0
vn 0 1 0
vn 0 1 0
vn -1 0 0
vn -0.707053 -0.7071605 0
vn -0.7071586 -0.7070549 0
vn -1 0 0
vn 1 0 0
vn 0.707055 -0.7071586 0
vn 0.7071605 -0.707053 0
vn 1 0 0
vn -0.0002347606 0 1
vn -0.0002347606 0 1
vn -0.0002347606 0 1
vn -0.0002347606 0 1
vn -0.707053 -0.7071605 0
vn 0.7071605 -0.707053 0
vn 0.707055 -0.7071586 0
vn -0.7071586 -0.7070549 0
vn 1 0 0
vn 1 0 0
vn 1 0 0
vn 0.9486757 0 0.3162504
vn 0.0002345735 0 -1
vn 0.0002345735 0 -1
vn 0.0002345735 0 -1
vn 0.0002345735 0 -1
vn 0.7070532 -0.7071603 -1.625899E-07
vn -0.7071605 -0.707053 -1.625652E-07
vn -0.5774124 -0.5773618 0.5772765
vn 0.5772882 -0.5773388 0.5774239
vn 0.9486908 4.257203E-07 0.3162051
vn 1 3.911924E-07 0
vn 1 6.959866E-07 0
vn 1 5.232237E-07 0
vn -1 -3.805268E-07 0
vn -0.9486757 -3.096579E-07 0.3162504
vn -0.5772882 -0.5773388 0.5774239
vn -0.7070532 -0.7071603 -1.625898E-07
vn 0.9486908 4.257203E-07 0.3162051
vn 1 5.232237E-07 0
vn 0.7071605 -0.707053 -1.625651E-07
vn 0.5774124 -0.5773618 0.5772766
vn 0 1 0
vn 0 1 0
vn 0 1 0
vn 0 1 0
vn 1 6.959866E-07 0
vn 1 3.911924E-07 0
vn 0.7071586 -0.7070549 0
vn 0.707053 -0.7071605 0
vn -1 -2.845039E-07 0
vn -1 -5.061708E-07 0
vn -0.7071605 -0.707053 0
vn -0.707055 -0.7071586 0
vn 0.0002348813 0 1
vn 0.0002348813 0 1
vn 0.0002348813 0 1
vn 0.0002348813 0 1
vn 0.707053 -0.7071605 0
vn 0.7071586 -0.7070549 0
vn -0.707055 -0.7071586 0
vn -0.7071605 -0.707053 0
vn -1 -2.845039E-07 0
vn -0.9486757 -3.096579E-07 0.3162504
vn -1 -3.805268E-07 0
vn -1 -5.061708E-07 0
vn -0.0002345417 0 -1
vn -0.0002345417 0 -1
vn -0.0002345417 0 -1
vn -0.0002345417 0 -1
vn -0.7070532 -0.7071603 -1.625898E-07
vn -0.5772882 -0.5773388 0.5774239
vn 0.5774124 -0.5773618 0.5772766
vn 0.7071605 -0.707053 -1.625651E-07
vn 0 1 1.290638E-07
vn 0 1 1.290638E-07
vn 0 1 1.290638E-07
vn 0 1 1.290638E-07
vn -0.7069954 0 -0.7072181
vn -0.7072182 0 0.7069954
vn -0.7072191 0 0.7069945
vn -0.7069945 0 -0.7072191
vn 0.706994 0 0.7072195
vn 0.7069951 0 0.7072185
vn 0.7072185 0 -0.706995
vn 0.7072197 0 -0.706994
vn -0.5774124 -0.5773618 0.5772765
vn -0.9486908 0 0.3162051
vn 0.9486757 0 0.3162504
vn 0.5772882 -0.5773388 0.5774239
vn 0.5774124 -0.5773618 0.5772766
vn -0.5772882 -0.5773388 0.5774239
vn -0.9486757 -3.096579E-07 0.3162504
vn 0.9486908 4.257203E-07 0.3162051
g numberPlate_backing_0
f 3/3/3 2/2/2 1/1/1
f 4/4/4 3/3/3 1/1/1
f 3/3/3 5/5/5 2/2/2
f 3/3/3 6/6/6 5/5/5
f 4/4/4 7/7/7 3/3/3
f 7/7/7 4/4/4 8/8/8
f 7/7/7 8/8/8 9/9/9
f 7/7/7 9/9/9 10/10/10
f 7/7/7 10/10/10 11/11/11
f 7/7/7 11/11/11 3/3/3
f 3/3/3 11/11/11 6/6/6
f 10/10/10 12/12/12 11/11/11
f 11/11/11 12/12/12 13/13/13
f 11/11/11 13/13/13 14/14/14
f 11/11/11 14/14/14 6/6/6
f 4/4/4 15/15/15 8/8/8
f 4/4/4 16/16/16 15/15/15
f 4/4/4 1/1/1 16/16/16
f 19/19/19 18/18/18 17/17/17
f 20/20/20 18/18/18 19/19/19
f 21/21/21 18/18/18 20/20/20
f 22/22/22 21/21/21 20/20/20
f 21/21/21 23/23/23 18/18/18
f 24/24/24 23/23/23 21/21/21
f 25/25/25 24/24/24 21/21/21
f 23/23/23 26/26/26 18/18/18
f 26/26/26 23/23/23 27/27/27
f 28/28/28 26/26/26 27/27/27
f 25/25/25 21/21/21 29/29/29
f 29/29/29 21/21/21 22/22/22
f 30/30/30 23/23/23 24/24/24
f 27/27/27 23/23/23 30/30/30
f 18/18/18 26/26/26 31/31/31
f 17/17/17 18/18/18 31/31/31
f 31/31/31 26/26/26 32/32/32
f 32/32/32 26/26/26 28/28/28
f 35/35/35 34/34/34 33/33/33
f 36/36/36 35/35/35 33/33/33
f 36/36/36 33/33/33 37/37/37
f 38/38/38 36/36/36 37/37/37
f 38/38/38 37/37/37 39/39/39
f 40/40/40 38/38/38 39/39/39
f 35/35/35 41/41/41 34/34/34
f 41/41/41 42/42/42 34/34/34
f 41/41/41 43/43/43 42/42/42
f 43/43/43 44/44/44 42/42/42
f 43/43/43 45/45/45 44/44/44
f 45/45/45 46/46/46 44/44/44
f 45/45/45 47/47/47 46/46/46
f 47/47/47 48/48/48 46/46/46
f 47/47/47 49/49/49 48/48/48
f 49/49/49 50/50/50 48/48/48
f 49/49/49 51/51/51 50/50/50
f 51/51/51 52/52/52 50/50/50
f 40/40/40 39/39/39 53/53/53
f 54/54/54 40/40/40 53/53/53
f 54/54/54 53/53/53 55/55/55
f 56/56/56 54/54/54 55/55/55
f 56/56/56 55/55/55 52/52/52
f 51/51/51 56/56/56 52/52/52
f 59/59/59 58/58/58 57/57/57
f 60/60/60 59/59/59 57/57/57
f 63/63/63 62/62/62 61/61/61
f 64/64/64 63/63/63 61/61/61
f 67/67/67 66/66/66 65/65/65
f 68/68/68 67/67/67 65/65/65
f 71/71/71 70/70/70 69/69/69
f 72/72/72 71/71/71 69/69/69
f 75/75/75 74/74/74 73/73/73
f 76/76/76 75/75/75 73/73/73
f 79/79/79 78/78/78 77/77/77
f 80/80/80 79/79/79 77/77/77
f 83/83/83 82/82/82 81/81/81
f 84/84/84 83/83/83 81/81/81
f 87/87/87 86/86/86 85/85/85
f 88/88/88 87/87/87 85/85/85
f 91/91/91 90/90/90 89/89/89
f 92/92/92 91/91/91 89/89/89
f 95/95/95 94/94/94 93/93/93
f 96/96/96 95/95/95 93/93/93
f 99/99/99 98/98/98 97/97/97
f 100/100/100 99/99/99 97/97/97
f 103/103/103 102/102/102 101/101/101
f 104/104/104 103/103/103 101/101/101
f 107/107/107 106/106/106 105/105/105
f 108/108/108 107/107/107 105/105/105
f 111/111/111 110/110/110 109/109/109
f 112/112/112 111/111/111 109/109/109
f 115/115/115 114/114/114 113/113/113
f 116/116/116 115/115/115 113/113/113
f 119/119/119 118/118/118 117/117/117
f 120/120/120 119/119/119 117/117/117
f 123/123/123 122/122/122 121/121/121
f 124/124/124 123/123/123 121/121/121
f 127/127/127 126/126/126 125/125/125
f 128/128/128 127/127/127 125/125/125
f 131/131/131 130/130/130 129/129/129
f 132/132/132 131/131/131 129/129/129
f 135/135/135 134/134/134 133/133/133
f 136/136/136 135/135/135 133/133/133
f 139/139/139 138/138/138 137/137/137
f 140/140/140 139/139/139 137/137/137
f 143/143/143 142/142/142 141/141/141
f 144/144/144 143/143/143 141/141/141
f 147/147/147 146/146/146 145/145/145
f 148/148/148 147/147/147 145/145/145
f 151/151/151 150/150/150 149/149/149
f 152/152/152 151/151/151 149/149/149
f 151/151/151 153/153/153 150/150/150
f 153/153/153 154/154/154 150/150/150
f 152/152/152 149/149/149 155/155/155
f 156/156/156 152/152/152 155/155/155
f 156/156/156 155/155/155 154/154/154
f 153/153/153 156/156/156 154/154/154
f 159/159/159 158/158/158 157/157/157
f 160/160/160 159/159/159 157/157/157
f 163/163/163 162/162/162 161/161/161
f 164/164/164 163/163/163 161/161/161
